<svg width="120" height="50" viewBox="0 0 120 50" fill="none" xmlns="http://www.w3.org/2000/svg">
<path d="M47.2301 17.6667L25.115 4L3 17.6667V45H25.115" stroke="#F5FAFF" stroke-width="6"/>
<path d="M38.6404 22.9056H28.5576L20.9956 39.3056H31.0783L38.6404 22.9056Z" fill="#1B85E8"/>
<path d="M52 22.9056H41.9172L34.3552 39.3056H44.4379L52 22.9056Z" fill="#1B85E8"/>
<path d="M67.1719 33.9688H64.2031V42H58.7188V19.25H67.6719C70.3698 19.25 72.4792 19.849 74 21.0469C75.5208 22.2448 76.2812 23.9375 76.2812 26.125C76.2812 27.7083 75.9583 29.0208 75.3125 30.0625C74.6771 31.1042 73.6771 31.9479 72.3125 32.5938L77.0625 41.7656V42H71.1875L67.1719 33.9688ZM64.2031 29.7344H67.6719C68.7135 29.7344 69.4948 29.4635 70.0156 28.9219C70.5469 28.3698 70.8125 27.6042 70.8125 26.625C70.8125 25.6458 70.5469 24.8802 70.0156 24.3281C69.4844 23.7656 68.7031 23.4844 67.6719 23.4844H64.2031V29.7344ZM85.0781 34.2812V42H79.5938V19.25H88.6719C90.4115 19.25 91.9479 19.5729 93.2812 20.2188C94.625 20.8542 95.6615 21.7656 96.3906 22.9531C97.1302 24.1302 97.5 25.4688 97.5 26.9688C97.5 29.1875 96.7031 30.9635 95.1094 32.2969C93.526 33.6198 91.349 34.2812 88.5781 34.2812H85.0781ZM85.0781 30.0469H88.6719C89.7344 30.0469 90.5417 29.7812 91.0938 29.25C91.6562 28.7188 91.9375 27.9688 91.9375 27C91.9375 25.9375 91.651 25.0885 91.0781 24.4531C90.5052 23.8177 89.724 23.4948 88.7344 23.4844H85.0781V30.0469ZM109.266 35.8125L113.797 19.25H119.922L112.266 42H106.266L98.6719 19.25H104.75L109.266 35.8125Z" fill="#F5FAFF"/>
</svg>
